<?xml version="1.0" encoding="utf-8"?>
<!-- Generator: Adobe Illustrator 16.0.0, SVG Export Plug-In . SVG Version: 6.00 Build 0)  -->
<!DOCTYPE svg PUBLIC "-//W3C//DTD SVG 1.1//EN" "http://www.w3.org/Graphics/SVG/1.1/DTD/svg11.dtd">
<svg version="1.1" id="Calque_1" xmlns="http://www.w3.org/2000/svg" xmlns:xlink="http://www.w3.org/1999/xlink" x="0px" y="0px"
	 width="41px" height="41px" viewBox="0 0 41 41" enable-background="new 0 0 41 41" xml:space="preserve">
<g>
	<circle fill="#FFFFFF" cx="-13.984" cy="102.627" r="18.392"/>
	<path fill="#5D6162" d="M-9.323,102.634h-3.048v10.871h-4.52v-10.871h-2.148v-3.84h2.148v-2.485c0-1.777,0.845-4.56,4.56-4.56
		l3.347,0.015v3.728h-2.429c-0.398,0-0.958,0.199-0.958,1.046v2.261h3.443L-9.323,102.634z M-9.323,102.634"/>
</g>
<g>
	<circle fill="#FFFFFF" cx="20.5" cy="20.5" r="18.393"/>
	<g>
		<path fill="#5D6162" d="M31.852,13.459c-0.835,0.37-1.732,0.621-2.676,0.733c0.963-0.577,1.701-1.488,2.049-2.577
			c-0.9,0.534-1.896,0.921-2.958,1.13c-0.849-0.905-2.06-1.471-3.4-1.471c-2.572,0-4.657,2.086-4.657,4.658
			c0,0.365,0.041,0.721,0.12,1.062c-3.87-0.194-7.303-2.049-9.601-4.868c-0.4,0.688-0.631,1.488-0.631,2.342
			c0,1.616,0.822,3.042,2.072,3.877c-0.764-0.024-1.482-0.233-2.109-0.583c-0.001,0.02-0.001,0.04-0.001,0.059
			c0,2.257,1.606,4.139,3.737,4.566c-0.391,0.107-0.803,0.164-1.228,0.164c-0.301,0-0.593-0.029-0.877-0.083
			c0.594,1.851,2.313,3.197,4.353,3.234c-1.596,1.25-3.604,1.994-5.785,1.994c-0.377,0-0.748-0.021-1.111-0.065
			c2.061,1.323,4.51,2.093,7.14,2.093c8.567,0,13.253-7.097,13.253-13.253c0-0.202-0.004-0.403-0.014-0.603
			C30.438,15.213,31.228,14.393,31.852,13.459L31.852,13.459z M31.852,13.459"/>
	</g>
</g>
</svg>
